<?xml version="1.0" encoding="UTF-8"?>
<svg id="_レイヤー_1" data-name="レイヤー_1" xmlns="http://www.w3.org/2000/svg" version="1.1" viewBox="0 0 1080 241.26">
  <!-- Generator: Adobe Illustrator 30.3.0, SVG Export Plug-In . SVG Version: 2.1.3 Build 182)  -->
  <defs>
    <style>
      .st0 {
        fill: #2e2826;
      }
    </style>
  </defs>
  <g>
    <path class="st0" d="M151.87,66.11l-.55.55c-3.18,3.18-8.04,3.56-11.92,1.29-12.17-7.14-28.14-5.61-38.34,4.59-12.39,12.39-12.39,32.38,0,44.38,5.6,6,13.59,9.59,21.99,9.59,5.88,0,11.56-1.76,16.49-4.88,3.85-2.43,8.93-1.59,12.1,1.67l.48.49c4.24,4.36,3.39,11.52-1.74,14.77-8.02,5.09-17.38,7.93-27.34,7.93-13.59,0-26.39-5.6-36.38-15.19-19.99-19.99-19.99-52.77,0-72.76,17.12-17.12,43.62-19.58,63.43-7.38,5.27,3.24,6.14,10.57,1.76,14.94Z"/>
    <path class="st0" d="M230.99,43.75c13.99,0,26.78,5.2,36.38,15.19,9.99,9.6,15.19,22.39,15.19,36.38,0,28.39-23.19,51.17-51.57,51.17s-51.17-22.79-51.17-51.17,22.79-51.57,51.17-51.57ZM230.99,126.51c17.59,0,31.58-13.99,31.58-31.18,0-8.39-3.2-16.39-9.2-22.39-6-6-13.99-9.2-22.39-9.2-17.19,0-31.18,13.99-31.18,31.58s13.99,31.18,31.18,31.18Z"/>
    <path class="st0" d="M387.72,66.11l-.55.55c-3.18,3.18-8.04,3.56-11.92,1.29-12.17-7.14-28.14-5.61-38.34,4.59-12.39,12.39-12.39,32.38,0,44.38,5.6,6,13.59,9.59,21.99,9.59,5.88,0,11.56-1.76,16.49-4.88,3.85-2.43,8.93-1.59,12.1,1.67l.48.49c4.24,4.36,3.39,11.52-1.74,14.77-8.02,5.09-17.38,7.93-27.34,7.93-13.59,0-26.39-5.6-36.38-15.19-19.99-19.99-19.99-52.77,0-72.76,17.12-17.12,43.62-19.58,63.43-7.38,5.27,3.24,6.14,10.57,1.76,14.94Z"/>
    <path class="st0" d="M466.84,43.75c13.99,0,26.78,5.2,36.38,15.19,9.99,9.6,15.19,22.39,15.19,36.38,0,28.39-23.19,51.17-51.57,51.17s-51.17-22.79-51.17-51.17,22.79-51.57,51.17-51.57ZM466.84,126.51c17.59,0,31.58-13.99,31.58-31.18,0-8.39-3.2-16.39-9.2-22.39-6-6-13.99-9.2-22.39-9.2-17.19,0-31.18,13.99-31.18,31.58s13.99,31.18,31.18,31.18Z"/>
    <path class="st0" d="M623.58,66.11l-.55.55c-3.18,3.18-8.04,3.56-11.92,1.29-12.17-7.14-28.14-5.61-38.34,4.59-12.39,12.39-12.39,32.38,0,44.38,5.6,6,13.59,9.59,21.99,9.59,5.88,0,11.56-1.76,16.49-4.88,3.85-2.43,8.93-1.59,12.1,1.67l.48.49c4.24,4.36,3.39,11.52-1.74,14.77-8.02,5.09-17.38,7.93-27.34,7.93-13.59,0-26.39-5.6-36.38-15.19-19.99-19.99-19.99-52.77,0-72.76,17.12-17.12,43.62-19.58,63.43-7.38,5.27,3.24,6.14,10.57,1.76,14.94Z"/>
    <path class="st0" d="M702.81,43.75c13.99,0,26.78,5.2,36.38,15.19,9.99,9.6,15.19,22.39,15.19,36.38,0,28.39-23.19,51.17-51.57,51.17s-51.17-22.79-51.17-51.17,22.79-51.57,51.17-51.57ZM702.81,126.51c17.59,0,31.58-13.99,31.58-31.18,0-8.39-3.2-16.39-9.2-22.39-6-6-13.99-9.2-22.39-9.2-17.19,0-31.18,13.99-31.18,31.58s13.99,31.18,31.18,31.18Z"/>
    <path class="st0" d="M829.96,54.68v.79c0,4.45-3.17,8.11-7.48,9.18-13.59,3.37-23.7,15.72-23.7,30.67v51.17h-19.99v-51.17c0-24.34,16.76-44.86,39.43-50.21,6.02-1.42,11.74,3.38,11.74,9.57Z"/>
    <path class="st0" d="M858.81,76.11h0c-6.83,0-12.37-5.54-12.37-12.37h0c0-6.83,5.54-12.37,12.37-12.37h0c6.83,0,12.37,5.54,12.37,12.37h0c0,6.83-5.54,12.37-12.37,12.37ZM871.17,88.97h0c5.52,0,9.99,4.47,9.99,9.99v47.53h-19.99v-47.53c0-5.52,4.47-9.99,9.99-9.99Z"/>
    <path class="st0" d="M956.75,43.75c13.99,0,26.78,5.2,36.38,15.19,9.99,9.6,15.19,22.39,15.19,36.38v51.17h-19.99v-51.17c0-8.39-3.2-16.39-9.2-22.39-6-6-13.99-9.2-22.39-9.2-17.19,0-31.18,13.99-31.18,31.58v51.17h-19.99v-51.17c0-28.39,22.79-51.57,51.17-51.57Z"/>
  </g>
  <g>
    <path class="st0" d="M312.06,194.45c0,3.07,0,6.14,0,9.21,0,.82.05,1.63.06,2.45,0,.83-.7,1.27-1.42.85-.2-.12-.33-.47-.36-.74-.13-1.25-.12-1.25-1.37-1.25-5.47,0-10.94,0-16.41,0-.94,0-1.04.09-1.09,1.02-.05.88-.53,1.23-1.36.89-.19-.08-.37-.42-.38-.64-.03-.91.03-1.83.04-2.74,0-5.93,0-11.86,0-17.79,0-.57-.01-1.14.04-1.7.04-.42.32-.7.74-.73.88-.06,1.76-.08,2.63-.11.24,0,.49.03.73.03,4.59,0,9.18,0,13.77,0,.88,0,1.76-.03,2.64-.05.13,0,.26,0,.39,0,1.11.11,1.34.37,1.34,1.49,0,3.27,0,6.53,0,9.8ZM306.01,194.77c-1.04,0-2.09.04-3.13-.01-.9-.04-1.21.37-1.21,1.24,0,2.1,0,4.21,0,6.31,0,.81.25,1.1,1.08,1.11,2.2.02,4.4.02,6.61,0,.75,0,1.02-.32,1.02-1.07,0-2.19,0-4.37,0-6.56,0-.75-.27-1.02-1.04-1.02-1.11,0-2.22,0-3.33,0ZM295.74,194.77c-1.04,0-2.09,0-3.13,0-.92,0-1.22.3-1.22,1.23,0,2.07,0,4.15,0,6.22,0,.87.29,1.2,1.17,1.2,2.15.01,4.31.01,6.46,0,.79,0,1.1-.33,1.1-1.11,0-2.15,0-4.31,0-6.46,0-.71-.37-1.07-1.09-1.08-1.09,0-2.19,0-3.28,0ZM306.07,184.77c-1.09,0-2.19,0-3.28,0-.78,0-1.12.34-1.12,1.14,0,2.1,0,4.21,0,6.31,0,.79.29,1.08,1.1,1.09,2.17,0,4.34,0,6.51,0,.78,0,1.09-.32,1.09-1.1,0-2.15,0-4.31,0-6.46,0-.71-.26-.97-.98-.97-1.11,0-2.22,0-3.33,0ZM295.74,184.77c-1.06,0-2.12,0-3.18,0-.83,0-1.17.33-1.17,1.14,0,2.07,0,4.15,0,6.22,0,.81.35,1.17,1.15,1.17,2.14,0,4.28,0,6.42,0,.82,0,1.15-.33,1.16-1.16,0-2.11,0-4.21,0-6.32,0-.72-.36-1.06-1.09-1.06-1.09,0-2.19,0-3.28,0Z"/>
    <path class="st0" d="M782.7,187.77c-1.24,0-2.48.02-3.72,0-.58-.01-.98.2-1.34.65-1.17,1.51-2.36,3-3.55,4.49-.21.27-.45.51-.7.76-.57.57-1.48.48-1.95-.19-.23-.33,0-.55.21-.76.52-.49,1.07-.96,1.56-1.48,2.62-2.79,4.85-5.84,6.21-9.46.27-.71.33-.74,1.02-.35.38.21.74.47,1.1.73.24.17.25.42-.02.54-.52.22-.71.68-.95,1.12-.29.53-.62,1.04-.91,1.56-.27.48-.09.84.45.83,2.97-.03,5.94-.09,8.91-.12.24,0,.54.11.71.27.25.24.45.57.58.89.08.19.07.49-.02.68-.64,1.31-1.3,2.62-1.99,3.92-.64,1.21-1.32,2.39-1.98,3.59-.4.71-.34,1,.31,1.49.48.36.97.72,1.45,1.09.25.2.51.45.34.78-.19.36-.46.69-.76.97-.07.07-.4-.07-.56-.18-.53-.37-1.04-.79-1.57-1.17-.58-.42-.85-.39-1.36.12-.85.84-1.64,1.73-2.53,2.52-2.11,1.87-4.48,3.35-7.07,4.47-.25.11-.5.23-.76.33-.7.28-1.62-.23-1.76-.98-.07-.35.2-.43.45-.53,1.38-.57,2.8-1.08,4.13-1.76,2.24-1.15,4.18-2.71,5.83-4.62.76-.88.67-1.35-.34-1.92-1.22-.69-2.45-1.36-3.68-2.04-.49-.27-.55-.48-.25-.93.45-.68.7-.79,1.41-.41,1.23.64,2.43,1.32,3.63,2.01.95.54,1.4.48,1.9-.49.86-1.7,1.68-3.42,2.46-5.15.39-.86.09-1.23-.94-1.25-1.32-.02-2.65,0-3.97,0Z"/>
    <path class="st0" d="M704.84,204.11c-1.58-.07-3.16-.12-4.74-.21-.4-.02-.81-.12-1.19-.24-1.07-.33-1.49-1.15-1.53-2.2-.03-.75-.01-1.5-.02-2.25,0-1.93,0-3.85,0-5.78,0-.58-.32-.8-1.02-.68-1.04.19-2.08.41-3.11.62-.97.2-1.94.43-2.91.63-.53.11-.81-.11-.88-.63-.12-.84-.02-.96.84-1.12,2.1-.39,4.2-.77,6.29-1.17.59-.11.81-.39.8-.99-.05-2.49-.11-4.99-.17-7.48,0-.28.07-.47.37-.44.55.07,1.1.16,1.63.28.35.08.43.27.25.65-.21.42-.37.91-.38,1.38-.04,1.68-.02,3.36-.02,5.04,0,.8.3,1.02,1.06.86,2.15-.43,4.31-.83,6.47-1.26,1.33-.26,2.65-.55,3.97-.84.61-.13,1.71.39,1.8.99.04.27-.18.64-.37.89-.58.74-1.22,1.44-1.83,2.17-1.11,1.31-2.21,2.62-3.32,3.92-.13.15-.26.29-.41.42-.52.5-1.48.38-1.86-.24-.2-.32,0-.55.22-.77.86-.84,1.75-1.66,2.58-2.54.68-.72,1.29-1.52,1.91-2.29.09-.11.15-.34.09-.43-.07-.09-.29-.14-.43-.11-1.73.33-3.45.67-5.18,1.01-1.26.25-2.52.48-3.78.75-.69.15-.92.46-.93,1.17,0,2.22,0,4.44,0,6.66,0,.36.04.72.09,1.07.11.76.45,1.11,1.28,1.25.7.12,1.43.23,2.13.21,2.65-.1,5.31-.25,7.96-.41.44-.03.57.12.56.5,0,.11,0,.23,0,.34-.03.73-.27,1-1.01,1.02-1.58.06-3.16.1-4.74.15-.16,0-.33,0-.49,0,0,.02,0,.04,0,.06Z"/>
    <g>
      <path class="st0" d="M547,194.83c-2.19,0-4.38,0-6.57,0-1.04,0-1.32-.27-1.31-1.3.01-1.65.04-3.29.07-4.94,0-.11.02-.24,0-.34-.05-.14-.13-.27-.21-.41-.13.08-.3.13-.39.25-.43.57-.82,1.17-1.26,1.73-.31.4-.66.42-1.08.16-.35-.22-.47-.47-.2-.84.59-.82,1.19-1.63,1.75-2.48,1.16-1.74,2.14-3.58,2.81-5.57.16-.46.38-.65.86-.44.3.13.62.2.92.33.11.05.23.19.25.31.01.07-.13.22-.24.26-.59.25-.73.81-.89,1.33-.11.37.19.55.51.55.88.02,1.76.03,2.64,0,.56-.03.97-.35,1.19-.88.22-.53.44-1.05.63-1.59.14-.36.31-.55.72-.33.31.17.65.3.96.47.11.06.2.21.24.33.01.04-.17.18-.27.21-.65.2-.73.79-.85,1.32-.07.31.21.47.5.47,1.75-.01,3.49,0,5.24-.07.79-.03,1.07.2.97.97-.05.36-.22.49-.59.49-1.93-.02-3.85-.02-5.78-.03-.83,0-1.11.33-1,1.16.05.4.24.68.68.68,1.22,0,2.45,0,3.67,0,.47,0,.95-.04,1.42-.04.47,0,.58.16.58.75,0,.4-.06.7-.58.69-1.57-.03-3.13-.04-4.7-.05-.97,0-1.45.84-.92,1.66.13.2.51.34.78.34,1.55.01,3.1-.03,4.65-.05.6,0,.77.17.77.73,0,.54-.22.73-.8.72-1.53-.01-3.07-.02-4.6-.03-.73,0-.95.26-.95,1.09,0,.8.25,1.09.97,1.08,2.06,0,4.12,0,6.17-.01.56,0,.77.17.76.64,0,.48-.21.65-.75.65-2.25,0-4.51,0-6.76,0,0,0,0,0,0,0ZM542.87,191.38s0,0,0,0c-.54,0-1.08,0-1.61,0-.43,0-.66.25-.71.66-.03.27-.02.55,0,.83.04.44.3.68.74.68,1.03,0,2.05,0,3.08,0,.43,0,.72-.23.78-.66.04-.3.05-.62,0-.92-.05-.35-.28-.59-.67-.59-.54,0-1.08,0-1.61,0ZM542.87,190c.46,0,.91,0,1.37,0,.02,0,.03,0,.05,0,.71-.01.9-.22.9-1.01,0-.77-.19-.99-.92-1-.85,0-1.69,0-2.54,0-1.06,0-1.23.17-1.19,1.22.02.57.23.78.82.79.5.01,1.01,0,1.51,0ZM542.85,186.64s0,0,0,0c.55,0,1.11.02,1.66,0,.52-.02.67-.26.67-.92,0-.66-.16-.9-.68-.91-1.09-.02-2.18-.02-3.28,0-.53.01-.68.22-.69.85-.01.74.11.94.65.97.55.03,1.11,0,1.66,0Z"/>
      <path class="st0" d="M531.53,200.76c0-1.19,0-2.38,0-3.58,0-.73-.23-.9-.91-.66-.51.18-1.01.37-1.49.61-.21.11-.37.34-.49.56-.21.37-.39.43-.64.07-.24-.34-.44-.72-.64-1.09-.21-.38-.03-.55.33-.68.91-.31,1.8-.65,2.71-.97.81-.29,1.18-.82,1.15-1.71-.05-1.48-.01-2.97-.01-4.46,0-.79-.26-1.05-1.06-1.06-.65,0-1.31.05-1.96.02-.24-.01-.64-.15-.68-.31-.08-.34-.01-.73.07-1.07.02-.08.34-.14.52-.14.65,0,1.3.06,1.96.05.92,0,1.17-.26,1.15-1.18-.03-1.38-.08-2.77-.13-4.15-.01-.34.12-.55.48-.52.58.05,1.17.11,1.75.2.11.01.24.12.28.22.03.06-.07.22-.15.27-.55.32-.61.84-.6,1.4.01.9,0,1.8,0,2.69,0,.75.27,1.05,1.01,1.07.59.02,1.17-.03,1.76-.06.5-.02.65.11.67.6.03.7-.11.93-.61.93-.62,0-1.24-.04-1.86-.03-.71,0-.97.28-.97.99,0,1.37,0,2.74,0,4.12,0,.6.31.79.86.52.47-.23.92-.49,1.38-.74.44-.24.73-.17.95.21.23.41.15.85-.23,1.05-.69.37-1.38.74-2.09,1.06-.6.26-.88.67-.88,1.32.02,2.89.02,5.78.02,8.67,0,1.44-.55,2.09-2,2.28-.76.1-1.52.16-2.29.18-.71.02-1.19-.71-.89-1.35.07-.15.35-.28.54-.29.63-.03,1.27.05,1.9,0,.8-.07,1.02-.32,1.06-1.13.05-1.19.03-2.38.05-3.57,0-.11,0-.23,0-.34Z"/>
      <path class="st0" d="M540.08,197.95c-.59.03-1.17.06-1.76.09-.48.02-.76-.29-.75-.81.01-.55.28-.83.75-.8.55.03,1.1.06,1.66.07,2.78,0,5.55,0,8.33,0,.84,0,1.31.39,1.25,1.03-.04.39-.12.77-.22,1.15-.22.84-.01,1.13.86,1.13.75,0,1.5-.03,2.25-.04.7,0,1,.29.99.97-.03,1.86-.56,3.59-1.38,5.24-.4.8-1.17,1.16-1.99,1.27-1.11.15-2.24.2-3.36.2-.85,0-1.04-.26-1.07-1.06-.01-.39.15-.53.53-.51.62.04,1.24.12,1.85.1.57-.01,1.15-.06,1.69-.22.36-.11.76-.37.95-.68.61-.98.92-2.08.95-3.24.01-.45-.18-.62-.61-.61-.41.01-.82.02-1.22,0-.47-.03-.85.14-1.21.43-.17.14-.38.27-.59.31-.68.13-.98-.21-.81-.88.19-.77.37-1.55.54-2.33.11-.55-.07-.76-.64-.77-.75-.01-1.5,0-2.25,0-.68,0-.87.17-1.09.81-.41,1.18-.75,2.4-1.26,3.53-.92,2.05-2.49,3.53-4.44,4.6-.29.16-.65.29-.97.27-.39-.02-.59-.35-.67-.74-.08-.39.11-.6.45-.76,1.35-.61,2.58-1.4,3.48-2.61.96-1.29,1.54-2.75,1.85-4.32.1-.49-.14-.76-.67-.79-.47-.02-.95,0-1.42,0,0,0,0-.02,0-.03Z"/>
    </g>
    <g>
      <path class="st0" d="M627.9,197.84c1.89,0,3.79,0,5.68,0,.57,0,.67.12.68.75,0,.69-.07.77-.68.77-3.27,0-6.53-.02-9.8,0-.28,0-.56.16-.84.25.1.29.13.64.31.87,1.44,1.88,3.32,3.23,5.49,4.12,1.27.52,2.62.85,3.95,1.22.77.22,1.03.64.59,1.25-.14.19-.51.38-.72.33-3.49-.74-6.71-2.05-9.26-4.64-.7-.71-1.24-1.59-1.87-2.38-.16-.2-.39-.44-.61-.47-.15-.02-.39.29-.49.5-.86,1.79-2.19,3.14-3.83,4.22-1.79,1.19-3.71,2.1-5.82,2.58-.52.12-1.06.2-1.59.24-.58.04-.86-.28-.88-.91-.02-.51.21-.7.81-.74,3.44-.25,6.33-1.66,8.66-4.19.39-.43.68-.95.97-1.46.24-.42.07-.72-.41-.8-.16-.03-.33-.02-.49-.02-3.18,0-6.37.01-9.55.02-.62,0-.71-.1-.69-.82.01-.59.16-.71.73-.71,3.49.02,6.99.03,10.48.04.64,0,.88-.2,1.04-.81.08-.3.15-.6.18-.91.07-.68-.17-.95-.84-.95-1.85,0-3.69,0-5.54,0-.36,0-.72,0-1.08,0-.31.01-.46-.13-.48-.42,0-.11-.02-.23-.02-.34,0-.71.15-.79.88-.78,2.15.05,4.31.05,6.46.05.5,0,.76-.31.79-.82.02-.31.01-.62,0-.93-.02-.71-.28-.97-.99-.97-2.42,0-4.83.02-7.25.02-.24,0-.67-.1-.7-.23-.08-.36-.04-.77.04-1.14.02-.09.37-.15.56-.15,2.19,0,4.38.03,6.56.04.28,0,.56,0,.83-.01.66-.04.97-.39.94-1.05-.02-.36-.07-.71-.13-1.07-.09-.56.08-.76.65-.71.47.04.94.09,1.41.17.14.02.26.15.39.22-.08.12-.12.29-.23.35-.48.27-.54.71-.54,1.18,0,.59.26.9.85.9,1.78.02,3.56.01,5.34,0,.78,0,1.57-.03,2.35-.04.53,0,.63.13.63.8,0,.65-.07.73-.62.73-2.48,0-4.96-.02-7.45-.03-.87,0-1.09.23-1.1,1.11,0,1.55.07,1.63,1.63,1.62,1.97-.02,3.95-.05,5.92-.07.54,0,.66.11.66.7,0,.77-.05.85-.65.84-2.19,0-4.38-.01-6.56-.01-.85,0-1.02.16-1.14.99-.04.27-.09.55-.13.82-.1.59.11.86.72.87,1.22.01,2.45,0,3.67,0,.7,0,1.4,0,2.11,0,0-.01,0-.03,0-.04Z"/>
      <path class="st0" d="M620.91,185.72c-3.18,0-6.37,0-9.55,0-.9,0-1.17.26-1.16,1.17,0,.62.03,1.24.05,1.86.02.46-.23.7-.78.72-.63.02-.87-.15-.87-.63,0-1.09,0-2.18,0-3.28,0-.89.38-1.28,1.28-1.3,1.03-.02,2.06.01,3.09.01,2.01,0,4.02,0,6.02,0,.96,0,1.19-.23,1.18-1.19,0-.6-.04-1.21-.09-1.81-.03-.39.08-.61.5-.57.53.05,1.07.1,1.6.18.12.02.27.12.33.22.03.05-.09.22-.18.3-.56.5-.83,1.75-.46,2.42.1.18.35.32.57.4.21.07.45.04.68.04,2.78,0,5.55-.01,8.33-.02,1.59,0,1.87.29,1.85,1.89-.01.89,0,1.79.01,2.68.01.65-.14.83-.78.83-.68,0-.89-.18-.88-.8,0-.67.02-1.34.02-2.01,0-.88-.25-1.12-1.15-1.12-3,0-6.01,0-9.01,0-.2,0-.39,0-.59,0Z"/>
    </g>
    <g>
      <path class="st0" d="M340.12,200.99c0-2.03,0-4.05,0-6.08,0-1.05-.22-1.28-1.25-1.28-1.73,0-3.46,0-5.19,0-.96,0-1.22.27-1.22,1.22,0,2.42,0,4.83,0,7.25,0,.77.05,1.53.06,2.3,0,.56-.19.74-.73.76-.8.02-1-.08-1.01-.71-.01-.81.06-1.63.06-2.44,0-2.71,0-5.42,0-8.13,0-.37-.02-.75,0-1.12.01-.37.24-.58.59-.61.7-.06,1.39-.11,2.09-.11,1.83,0,3.65.06,5.48.06.83,0,1.13-.32,1.12-1.14-.02-.9-.07-1.79-.14-2.68-.04-.55.06-.69.6-.65.53.04,1.07.09,1.6.18.26.04.41.27.15.44-.69.42-.61,1.1-.67,1.73-.03.32,0,.65,0,.98.01.79.29,1.14,1.08,1.15,1.76.01,3.52-.04,5.28-.05.65,0,1.3,0,1.95.05.93.08.96.42.96,1.23,0,2.87-.04,5.74-.07,8.62,0,.29,0,.59,0,.88-.02,1.55-.61,2.28-2.15,2.51-.88.13-1.78.18-2.68.21-.84.03-1.25-.53-.99-1.31.05-.15.34-.31.52-.32.55-.02,1.11.04,1.66.04.37,0,.75-.03,1.12-.07.47-.05.81-.38.85-.86.04-.49.05-.98.05-1.47,0-2.24,0-4.47,0-6.71,0-.98-.23-1.22-1.21-1.22-1.73,0-3.46,0-5.19,0-.88,0-1.18.3-1.18,1.18,0,3.12,0,6.24,0,9.36,0,1.06.06,2.12.07,3.18,0,.6-.22.83-.77.85-.61.02-.87-.22-.87-.84,0-1.18.02-2.35.03-3.53,0-.95,0-1.89,0-2.84Z"/>
      <path class="st0" d="M342.51,181.66c-.02.06-.02.08-.03.09-.8.49-.8,1.27-.76,2.06.02.36,0,.72,0,1.08,0,.76.3,1.05,1.08,1.06.83,0,1.67,0,2.5,0,2.51,0,5.03,0,7.54-.02.33,0,.65-.04.98-.04.3,0,.5.12.48.47-.01.19,0,.39,0,.59,0,.34-.17.5-.52.48-.39-.02-.78-.01-1.18-.01-4.05,0-8.1.02-12.14.02-4.1,0-8.19,0-12.29-.01-.51,0-.64-.18-.62-.85.01-.55.19-.7.74-.69,3.61.03,7.21.05,10.82.07.74,0,1.02-.28,1.01-1.01-.02-1.07-.09-2.15-.11-3.22,0-.15.18-.45.26-.44.72.06,1.44.16,2.16.26.03,0,.06.07.09.12Z"/>
    </g>
    <path class="st0" d="M820.87,194.32c-3.51,0-7.02,0-10.53,0-.71,0-.79-.08-.79-.78,0-.92.14-1.06,1.04-1.01.26.01.52.02.78.02,6.33,0,12.67,0,19,0,.38,0,.75-.02,1.13-.02.42,0,.65.18.67.65.03,1.12.02,1.14-1.11,1.14-3.4,0-6.79,0-10.19,0Z"/>
    <g>
      <path class="st0" d="M377.28,198.75c-1.21,0-2.42,0-3.62,0-.86,0-1.08.2-1.28,1.03-.46,1.9-.97,3.78-2.03,5.46-.22.34-.48.65-.73.97-.3.37-.61.29-.93.02-.3-.27-.58-.53-.29-.99.51-.81,1.07-1.61,1.49-2.46.77-1.57,1.13-3.27,1.22-5,.11-1.99.08-3.98.13-5.97.03-1.16.35-1.43,1.52-1.41,2.2.03,4.4.05,6.61.07.59,0,1.18,0,1.76,0,1.05,0,1.34.31,1.33,1.34-.02,1.65-.03,3.3-.04,4.94,0,.39.02.78,0,1.17-.02.46-.3.71-.74.78-.32.05-.65.07-.97.08-1.14,0-2.28,0-3.43,0,0,0,0-.02,0-.03ZM376.84,197.31c.93,0,1.86-.04,2.79,0,1.1.06,1.41-.56,1.18-1.58-.08-.36-.32-.57-.69-.57-2.2,0-4.41-.01-6.61.02-.22,0-.57.22-.63.42-.3.9-.17,1.73,1.02,1.71.98-.02,1.96,0,2.94,0ZM376.85,193.79c1.08,0,2.16,0,3.23,0,.59,0,.8-.25.81-.91,0-.69-.21-.95-.82-.95-2.17,0-4.34,0-6.51,0-.63,0-.77.2-.77,1.02,0,.67.16.84.78.84,1.09,0,2.19,0,3.28,0Z"/>
      <path class="st0" d="M391,193.46c0-3.69,0-7.38,0-11.07,0-.2-.02-.39-.04-.59-.07-.59,0-.69.57-.65.57.04,1.14.08,1.69.2.39.08.45.34.14.52-.58.34-.63.88-.63,1.44,0,1.65,0,3.3,0,4.95,0,5.06,0,10.13,0,15.19,0,.76.02,1.53-.03,2.29-.09,1.54-1.11,1.87-2.1,2.05-.86.16-1.75.18-2.63.21-.83.03-1.12-.31-1.09-1.14.02-.53.26-.7.84-.69.73.02,1.46.02,2.19-.02.6-.04.88-.29,1.01-.88.08-.36.1-.74.1-1.12,0-3.56,0-7.12,0-10.68,0,0-.02,0-.03,0Z"/>
      <path class="st0" d="M377.34,200.67c1.24,0,2.48,0,3.72,0,.92,0,1.24.29,1.25,1.22,0,1.17-.04,2.35-.04,3.52,0,.67.01,1.34.04,2,.02.41-.21.57-.56.58-.39,0-.85.13-1-.44q-.23-.87-1.14-.87c-1.58,0-3.17,0-4.75,0-.72,0-.78.06-.9.78-.08.5-.45.54-.85.53-.39,0-.75-.1-.75-.58,0-1.94,0-3.88.03-5.82.01-.61.41-.93,1.03-.94,1.31,0,2.61,0,3.92,0ZM377.36,202.13c-.78,0-1.57,0-2.35,0-.7,0-1.05.36-1.06,1.05,0,.31,0,.62,0,.93,0,.77.31,1.12,1.08,1.12,1.58.02,3.16.01,4.75,0,.57,0,.91-.34.96-.9.03-.37.02-.75.01-1.12-.02-.73-.37-1.07-1.1-1.08-.77,0-1.53,0-2.3,0Z"/>
      <path class="st0" d="M376.63,188.75c-1.11,0-2.22-.01-3.33,0-.37,0-.57-.08-.65-.47-.11-.55-.24-.57-.72-.24-.76.53-1.53,1.04-2.32,1.54-.38.24-.75.13-1.04-.22-.28-.34-.24-.67.17-.94.7-.47,1.43-.91,2.13-1.39,2.15-1.49,4.06-3.23,5.53-5.41.26-.38.53-.49.94-.27.23.12.47.22.7.35.31.17.63.33.23.75-.06.06.07.39.19.51,1.14,1.2,2.44,2.2,3.83,3.1.45.29.92.56,1.36.86.4.27.46.6.22,1.01-.25.42-.62.58-1.03.34-.8-.47-1.61-.95-2.34-1.52-1.01-.79-1.97-1.66-2.92-2.52-.6-.55-.86-.57-1.44,0-.78.76-1.57,1.52-2.34,2.3-.12.12-.21.34-.19.5.01.09.28.2.44.2,1.96.01,3.92.01,5.88,0,.62,0,.78.12.79.7.01.7-.1.82-.77.82-1.11,0-2.22,0-3.33,0,0,0,0,0,0,0Z"/>
      <path class="st0" d="M385.8,192.78c0-2.04,0-4.08,0-6.11,0-.39-.06-.78-.1-1.17-.04-.34.12-.51.44-.49.58.04,1.17.09,1.74.2.3.06.35.34.09.5-.57.35-.59.91-.59,1.46,0,3.96,0,7.93,0,11.89,0,.8.06,1.6.05,2.4,0,.72-.27.92-.98.88-.34-.02-.58-.17-.61-.51-.04-.5-.03-1-.03-1.5,0-2.51,0-5.02,0-7.53Z"/>
    </g>
    <path class="st0" d="M461,192.2c1.46-.02,2.49.94,2.52,2.35.03,1.48-1.12,2.66-2.6,2.68-1.54.02-2.61-.91-2.62-2.29-.02-1.58,1.1-2.71,2.7-2.73Z"/>
    <path class="st0" d="M581.01,191.67c1.43-.01,2.47.98,2.49,2.38.02,1.44-1.16,2.63-2.63,2.65-1.52.02-2.63-.92-2.61-2.3.03-1.57,1.03-2.73,2.74-2.73Z"/>
    <g>
      <path class="st0" d="M262.94,198.93c-.93,0-1.17.23-1.17,1.16,0,2.37.02,4.73.03,7.1,0,.21-.02.42-.05.63-.07.47-.41.58-.82.58-.42,0-.74-.13-.81-.6-.03-.21-.05-.42-.05-.63.01-2.33.03-4.67.05-7,0-1-.23-1.24-1.24-1.24-2.97,0-5.94,0-8.91,0-.51,0-1.01,0-1.52.04-.41.03-.55-.17-.59-.54-.08-.86.1-1.01.96-1,2.51.04,9.3.07,10.19.06.84-.01,1.12-.3,1.12-1.13,0-.95,0-1.89,0-2.84,0-.74-.28-1.01-1.01-1.01-2.92,0-5.85,0-8.77.02-.57,0-.68-.2-.67-.85.01-.55.21-.71.75-.7,2.92.03,5.84.05,8.76.06.62,0,.92-.33.93-1.01.01-.9.01-1.8,0-2.69-.03-1.88-.07-3.75-.11-5.63-.01-.63.02-.7.65-.66.52.03,1.04.1,1.55.18.13.02.3.11.34.22.03.09-.07.29-.16.35-.48.32-.59.79-.59,1.32,0,2.29-.02,4.57-.02,6.86,0,.78.28,1.07,1.06,1.07,2.76,0,5.52,0,8.28-.01.1,0,.2-.02.29-.01.28.03.77.02.8.13.1.37.08.79.03,1.19-.01.08-.35.17-.54.18-2.91,0-5.81,0-8.72,0-.98,0-1.2.22-1.2,1.22,0,.91,0,1.83,0,2.74,0,.66.24.91.89,1,.14.02,9.92-.04,10.67-.05.25,0,.64-.13.69.26.04.38-.03.79-.11,1.17-.01.07-.32.1-.49.1-1.76,0-8.75-.04-10.48-.03Z"/>
      <path class="st0" d="M271.53,183.16c-1.53.65-1.81,2.19-2.68,3.26-.78.96-1.48,1.98-2.24,2.96-.25.32-.54.63-1.03.42-.66-.28-.76-.63-.31-1.19,1.52-1.89,3-3.82,4.12-5.99.06-.12.22-.29.3-.27.64.16,1.3.28,1.85.8Z"/>
      <path class="st0" d="M256.68,189.1c-.2.17-.38.41-.63.53-.28.15-.58.08-.76-.22-.32-.55-.62-1.11-.95-1.65-.88-1.44-1.77-2.89-2.67-4.32-.33-.53-.34-.81.07-1.09.48-.33.82-.3,1.15.24,1.22,1.98,2.4,3.98,3.6,5.98.07.12.11.27.21.53Z"/>
    </g>
    <g>
      <path class="st0" d="M510.02,198.03c1.26,0,2.51,0,3.77,0,.54,0,.67.13.68.71.01.67-.11.82-.66.82-2.43,0-4.87-.01-7.3-.01-.86,0-1.11.25-1.12,1.11,0,.83.02,1.66,0,2.5-.02.56-.21.71-.77.71-.53,0-.74-.19-.75-.74-.01-.8-.01-1.6.02-2.4.04-.78-.28-1.17-1.06-1.17-2.42,0-4.83,0-7.25.01-.64,0-.72-.09-.71-.74,0-.61.18-.78.73-.78,2.45.02,4.9.02,7.35.04.43,0,.77-.1.92-.55.18-.54.05-1.42-.26-1.61-.16-.1-.37-.15-.55-.15-1.39,0-2.77.02-4.16.03-.16,0-.33,0-.49-.02-.81-.09-.98-.29-.99-1.09,0-2.14,0-4.28,0-6.42,0-.99.18-1.21,1.2-1.23,1.39-.03,2.78,0,4.16-.01.39,0,.9.08,1-.39.11-.48.06-1.02-.04-1.51-.03-.15-.45-.3-.69-.3-2.04-.02-4.08,0-6.12,0-.33,0-.65,0-.98.01-.34.02-.48-.14-.49-.46,0-.07,0-.13,0-.2-.01-.87.08-.9.95-.88,2.19.05,4.37.05,6.56.05.61,0,.96-.38.96-1.01,0-.55-.08-1.1-.14-1.66-.04-.41.13-.59.53-.55.5.05,1,.11,1.5.2.11.02.24.12.28.22.03.06-.06.23-.14.27-.7.43-.58,1.12-.54,1.76.03.52.36.77.95.77,1.6,0,3.2,0,4.8-.02.78,0,1.57-.04,2.35-.05.5,0,.59.13.59.83,0,.61-.09.71-.59.71-2.35,0-4.7-.02-7.05-.02-.38,0-.81-.05-.97.38-.19.53-.24,1.11.1,1.6.11.16.46.22.7.22,1.37.02,2.74,0,4.11.01.16,0,.33,0,.49.02.84.1.96.24.96,1.08,0,2.2,0,4.41,0,6.61,0,.82-.12,1-.94,1.03-1.11.05-2.22,0-3.33,0-.46,0-.92-.01-1.37,0-.57.03-.79.26-.83.82-.01.21-.01.42,0,.64.03.61.28.85.89.86,1.26,0,2.51,0,3.77,0,0-.01,0-.03,0-.04ZM507.86,194.41c.54,0,1.08.01,1.62,0,.64-.02.88-.27.89-.9,0-.21,0-.42,0-.64,0-.66-.22-.88-.88-.89-1.01,0-2.02,0-3.04,0-.87,0-1.09.22-1.09,1.1,0,.13,0,.26,0,.39.03.65.28.92.93.93.52.01,1.04,0,1.57,0ZM501.43,194.41c.36,0,.72,0,1.08,0,1.29,0,1.46-.18,1.41-1.49,0-.05,0-.1,0-.15-.06-.55-.31-.79-.86-.79-.88,0-1.76,0-2.65,0-1.46,0-1.51.06-1.49,1.52.01.64.25.89.89.91.54.02,1.08,0,1.62,0ZM507.86,190.71c.57,0,1.14,0,1.71,0,.55,0,.78-.23.79-.76,0-.26,0-.52,0-.78-.01-.51-.26-.78-.78-.79-1.14-.02-2.28-.01-3.42,0-.49,0-.75.26-.79.75-.02.31-.03.62.01.93.06.42.31.66.76.66.57,0,1.14,0,1.71,0ZM501.39,190.71c.54,0,1.07,0,1.61,0,.63,0,.9-.25.92-.87,0-.2,0-.39,0-.59-.03-.62-.3-.88-.92-.88-.86,0-1.73.03-2.59,0-1.7-.07-1.48.47-1.48,1.63,0,.02,0,.03,0,.05.05.44.29.67.74.67.57,0,1.14,0,1.71,0Z"/>
      <path class="st0" d="M507.35,206.68c-1.99,0-3.99.06-5.97-.02-1.55-.06-3.13-.07-4.62-.66-1.3-.52-2.34-1.33-3.13-2.48-.49-.71-.76-.74-1.42-.21-.89.72-1.8,1.41-2.66,2.15-.24.2-.41.53-.51.83-.14.42-.23.5-.59.22-.31-.24-.59-.51-.87-.79-.36-.37-.35-.5.07-.81.84-.64,1.69-1.28,2.53-1.92.48-.37.95-.75,1.42-1.13.51-.41.72-.95.72-1.59,0-1.94,0-3.89,0-5.83,0-.74-.27-1.01-.99-1.01-.91,0-1.83.02-2.74.02-.54,0-.69-.18-.69-.82,0-.61.13-.77.69-.76,1.35.01,2.71.03,4.06.07,1.01.03,1.26.3,1.26,1.31,0,2.32,0,4.64,0,6.96,0,1.76.91,2.98,2.34,3.86,1.36.83,2.89.98,4.43,1.02,3.33.08,6.66.12,9.98.16,1.01.01,2.02-.02,3.03-.03.28,0,.57-.04.61.37.05.6-.12.99-.53,1.05-.27.04-.55.04-.83.04-1.86,0-3.72,0-5.58,0,0,0,0-.01,0-.02Z"/>
      <path class="st0" d="M494.93,186.32c-.21.23-.38.51-.63.63-.18.08-.53.02-.69-.11-.43-.37-.79-.82-1.2-1.21-1.18-1.12-2.38-2.21-3.55-3.34-.2-.2-.42-.5-.43-.76-.01-.58.7-.89,1.19-.51.72.56,1.43,1.13,2.08,1.77.99.96,1.94,1.97,2.89,2.97.13.13.19.33.34.58Z"/>
    </g>
    <g>
      <path class="st0" d="M424.91,192.14c-2.95,0-5.91,0-8.86,0-.57,0-.65-.09-.65-.75,0-.65.11-.78.66-.77,2.25.02,4.5.03,6.76.04.86,0,1.13-.22,1.17-1.08.03-.71.02-1.44-.04-2.15-.05-.56-.35-.79-.92-.79-.98,0-1.96,0-2.94,0-.65,0-1.06.33-1.31.91-.21.48-.4.97-.64,1.43-.31.6-1.07.7-1.5.18-.11-.14-.07-.49.02-.69.3-.7.72-1.36.98-2.07.48-1.31.89-2.65,1.31-3.99.22-.69.34-.78,1.01-.55.32.11.65.22.95.37.25.12.3.38.02.47-.42.13-.52.45-.63.79-.1.31-.21.62-.29.93-.11.47.08.74.56.75.86.02,1.73.02,2.6,0,.51-.01.78-.26.8-.86.03-.89-.03-1.79-.09-2.68-.05-.73-.02-.8.72-.76.47.03.94.11,1.4.19.11.02.23.12.28.22.03.07-.05.23-.12.28-.58.35-.62.92-.62,1.5,0,.41-.02.82,0,1.22.03.58.35.9.94.9,1.63,0,3.26-.03,4.9-.02.25,0,.68.1.71.23.08.36.02.76-.04,1.14-.01.07-.31.13-.47.13-1.63,0-3.26,0-4.9-.01-.86,0-1.14.27-1.14,1.14,0,.62-.01,1.24,0,1.86.01.69.34,1.02,1.04,1.01,2.43,0,4.86-.03,7.29-.05.53,0,.65.14.66.77,0,.64-.09.76-.65.76-2.99,0-5.98,0-8.96,0Z"/>
      <path class="st0" d="M427.32,207.22c-1.99,0-3.99.06-5.97-.02-1.55-.06-3.13-.06-4.62-.65-1.3-.51-2.35-1.32-3.14-2.47-.51-.74-.77-.77-1.45-.21-.87.71-1.75,1.41-2.64,2.11-.3.23-.49.5-.53.89-.04.41-.21.47-.55.21-.32-.25-.6-.55-.91-.82-.34-.3-.25-.54.07-.79,1.19-.91,2.36-1.85,3.58-2.73.8-.58,1.15-1.29,1.12-2.29-.05-1.79-.01-3.59-.01-5.39,0-.83-.25-1.08-1.07-1.08-.88,0-1.76.02-2.64.02-.55,0-.71-.18-.71-.8,0-.64.13-.79.71-.78,1.32.02,2.64.04,3.96.06,1.07.02,1.32.29,1.32,1.35,0,2.3,0,4.6,0,6.91,0,1.77.91,3.01,2.37,3.89,1.35.82,2.86.97,4.38,1.01,3.34.08,6.69.12,10.03.16.99.01,1.99-.02,2.99-.03.29,0,.61-.05.63.4.03.63-.13.97-.56,1.03-.26.04-.52.03-.78.03-1.86,0-3.72,0-5.58,0,0,0,0-.01,0-.02Z"/>
      <path class="st0" d="M424.73,194.99c1.76,0,3.52,0,5.28,0,.97,0,1.37.38,1.36,1.37-.01,1.5-.06,3-.07,4.5,0,.54.09,1.08.05,1.61-.02.25-.17.63-.35.7-.4.14-.91.22-1.21-.21-.24-.35-.51-.44-.9-.44-2.79.01-5.58.01-8.37,0-.37,0-.65.08-.86.42-.18.3-.92.47-1.24.22-.21-.16-.33-.54-.33-.83-.03-1.84-.02-5.62-.02-5.67-.01-1.58.41-1.69,1.61-1.68,1.68.02,3.36,0,5.04,0ZM428.72,201.05c.68,0,1.02-.35,1.03-1.02.01-.82,0-1.63,0-2.45,0-.78-.32-1.11-1.09-1.11-2.63,0-5.25,0-7.88,0-.72,0-1.09.37-1.1,1.08-.01.8-.01,1.6,0,2.4.01.77.34,1.1,1.11,1.11,1.3,0,6.59,0,7.93,0Z"/>
      <path class="st0" d="M408.36,182.28c-.02-.68.63-1.1,1.1-.79.54.36,1.06.76,1.53,1.21,1.21,1.16,2.4,2.34,3.56,3.55.43.45.18,1.12-.43,1.21-.23.03-.54-.11-.72-.28-.61-.57-1.15-1.2-1.75-1.77-.95-.9-1.93-1.76-2.89-2.64-.18-.17-.32-.38-.41-.49Z"/>
    </g>
    <g>
      <path class="st0" d="M751.18,190.3c-.11.19-.18.39-.32.53-1.32,1.35-2.59,2.76-4,4.02-2.81,2.51-5.86,4.73-9.15,6.58-1.52.85-3.11,1.56-4.66,2.37-.34.18-.64.48-.89.78-.31.38-.48.44-.74.04-.32-.49-.58-1.02-.82-1.55-.16-.37.21-.42.43-.51.97-.37,1.97-.68,2.92-1.1,2.5-1.09,4.83-2.5,7.07-4.05,2.52-1.74,4.83-3.72,6.94-5.94.65-.68,1.26-1.4,1.89-2.11.47-.52.69-.5.99.13.12.25.21.51.33.8Z"/>
      <path class="st0" d="M731.62,183.73c.26.13.43.2.57.3,1.38.95,2.75,1.91,4.12,2.88.52.37.53.6.15,1.14-.43.61-.71.7-1.23.33-1.03-.74-2.03-1.52-3.05-2.28-.35-.26-.72-.51-1.08-.75-.44-.29-.51-.53-.18-.96.19-.25.47-.44.7-.66Z"/>
    </g>
    <g>
      <path class="st0" d="M665.8,180.87c-.14.22-.17.31-.23.34-.59.29-.62.81-.6,1.37.03.67.02,1.34.05,2.01.03.62.27.87.89.85,1.32-.05,2.64-.12,3.96-.2,1.01-.06,2.02-.14,3.02-.23.52-.05.6.26.62.66.04.56-.08.75-.53.81-.03,0-.07,0-.1,0-1.64.07-3.29.13-4.93.21-.72.04-1.43.12-2.14.18-.38.04-.61.26-.59.64.03.6.08,1.2.18,1.8.07.46.41.64.86.61,1.89-.12,3.77-.23,5.66-.35.2-.01.39-.04.58-.05.61-.03.76.1.78.71.03.63-.09.74-.71.77-1.94.09-3.88.18-5.81.3-.96.06-1.15.32-1,1.29.06.37.11.74.17,1.11.12.75.43,1.04,1.18,1,2.12-.12,4.23-.29,6.35-.41.23-.01.63.04.67.17.12.31.13.7.07,1.03-.02.11-.38.21-.58.23-1.61.09-3.23.16-4.84.24-.54.03-1.07.08-1.61.14-.46.06-.64.29-.52.75.17.68.37,1.35.6,2.01.18.51.53.6.94.22.56-.52,1.07-1.1,1.59-1.66.54-.58.59-.6,1.27-.19.32.2.62.43,1.03.72-.17.11-.24.17-.31.19-.86.16-1.3.88-1.88,1.41-.39.35-.76.71-1.15,1.06-.45.42-.56.78-.27,1.3.59,1.05,1.21,2.08,1.83,3.1.1.16.26.29.42.4.74.54,1.41.33,1.64-.56.19-.74.27-1.5.37-2.26.05-.37.05-.75.08-1.12.02-.32.04-.61.51-.59.72.03,1.02.15,1.02.63,0,.63-.03,1.28-.15,1.9-.14.75-.33,1.49-.57,2.22-.63,1.9-2.62,2.12-3.96.86-.96-.9-1.62-2-2.2-3.15-.04-.09-.09-.18-.13-.26-.36-.71-.68-.79-1.35-.32-2.21,1.57-4.54,2.94-6.99,4.09-.29.14-.62.21-.93.25-.4.05-.7-.13-.8-.55-.1-.43.11-.68.48-.85,1.01-.46,2.05-.86,3.01-1.41,1.63-.94,3.22-1.97,4.8-3,.62-.4.66-.68.44-1.38-.29-.93-.57-1.87-.86-2.8-.2-.64-.48-.87-1.14-.83-1.43.08-2.86.19-4.29.31-.6.05-.82-.11-.87-.74-.04-.51.18-.73.77-.75,1.32-.06,2.64-.12,3.95-.19.76-.04.95-.26.88-1.01-.05-.52-.13-1.03-.24-1.54-.13-.63-.52-.9-1.17-.84-.83.08-1.65.16-2.48.24-.44.04-.68-.2-.71-.72-.04-.52.12-.7.6-.72.81-.04,1.63-.07,2.44-.12.6-.04,1.05-.2.89-1.06-.07-.4-.05-.81-.11-1.22-.09-.6-.38-.86-.99-.84-1.06.05-2.11.14-3.17.19-.6.03-.71-.1-.73-.69-.02-.63.07-.73.72-.75.98-.04,1.96-.07,2.93-.12.77-.04,1.03-.3,1.01-1.07-.02-1.17-.08-2.35-.12-3.52-.02-.59.04-.67.63-.59.59.08,1.16.22,1.85.35Z"/>
      <path class="st0" d="M652.77,197.32c0-1.75,0-3.49,0-5.24,0-.79-.27-1.05-1.06-1.06-.47,0-.95,0-1.42,0-.6-.01-.92-.29-.95-.89-.03-.67,0-1.34,0-2.01-.01-1.83-.02-3.66-.04-5.48,0-.87.29-1.19,1.16-1.19,1.86,0,3.72,0,5.58,0,.23,0,.46.01.68.05.47.07.72.35.72.83,0,2.58,0,5.16,0,7.74,0,.64-.34.94-.99.95-.39,0-.78,0-1.18,0-.6.02-.91.32-.92.9-.01,1-.01,1.99,0,2.99,0,.56.32.88.89.89.59,0,1.17-.07,1.76-.05.26,0,.71.1.75.24.1.35.04.76-.02,1.13-.01.08-.3.15-.47.15-.67.01-1.34,0-2.01,0-.62,0-.9.28-.9.9,0,1.34,0,2.68,0,4.02,0,.63.27.84.86.68.68-.18,1.35-.38,2.01-.6.59-.19.88-.12,1.02.28.18.52,0,.95-.55,1.11-1.63.47-3.26.92-4.89,1.35-1.19.32-2.4.57-3.59.9-.26.07-.53.3-.7.53-.25.33-.43.27-.58-.02-.22-.43-.41-.89-.56-1.35-.04-.11.12-.31.24-.43.08-.08.24-.09.37-.11.83-.14.96-.28.96-1.1,0-2.61,0-5.23,0-7.84,0-.49-.09-.97-.15-1.46-.05-.4.11-.61.51-.58.55.04,1.1.11,1.65.19.12.02.27.13.32.25.03.06-.09.25-.19.31-.5.29-.56.76-.56,1.27,0,2.47,0,4.93,0,7.4,0,.89.26,1.08,1.1.84.08-.02.16-.04.24-.06.61-.13.89-.45.9-1.09,0-1.78,0-3.56,0-5.34ZM655.88,186.28c0-.7,0-1.4,0-2.11,0-1-.29-1.29-1.27-1.3-.86,0-1.73,0-2.59,0-.82,0-1.18.33-1.19,1.14-.01,1.48-.01,2.97,0,4.45,0,.71.34,1.06,1.05,1.07.98.02,1.96.02,2.94,0,.77,0,1.06-.3,1.07-1.07.01-.73,0-1.47,0-2.2Z"/>
      <path class="st0" d="M671.1,183.84c-.02.67-.68,1.01-1.16.68-.25-.17-.43-.44-.65-.65-.61-.59-1.22-1.17-1.84-1.75-.41-.39-.45-.62-.13-1,.3-.36.66-.44,1.02-.12.86.77,1.69,1.57,2.52,2.38.14.14.19.36.24.47Z"/>
    </g>
  </g>
</svg>